In the distant future, a man appears who may be the prophet that a long-suffering galaxy has been waiting for.


subtitles: English, Croatian, French, Spanish, Brazilian (.srt)


General
Complete name : Dune.1984.original.theatrical.BRrip.XviD.AC3-Atilla82.avi
Format : AVI
Format/Info : Audio Video Interleave
File size : 1.36 GiB
Duration : 2h 16mn
Overall bit rate : 1 424 Kbps
Movie name : Dune (1984) Original - atilla82
Director : Atilla82
Subject : Dune (1984) Original - atilla82
Writing application : Nandub v1.0rc2
Writing library : Nandub build 1853/release

Video
ID : 0
Format : MPEG-4 Visual
Format profile : Advanced Simple@L5
Format settings, BVOP : No
Format settings, QPel : Yes
Format settings, GMC : No warppoints
Format settings, Matrix : Default (MPEG)
Codec ID : XVID
Codec ID/Hint : XviD
Duration : 2h 16mn
Bit rate : 1 095 Kbps
Width : 720 pixels
Height : 304 pixels
Display aspect ratio : 2.35:1
Frame rate : 23.976 fps
Color space : YUV
Chroma subsampling : 4:2:0
Bit depth : 8 bits
Scan type : Progressive
Compression mode : Lossy
Bits/(Pixel*Frame) : 0.209
Stream size : 1.04 GiB (77%)
Writing library : XviD 64

Audio
ID : 1
Format : AC-3
Format/Info : Audio Coding 3
Mode extension : CM (complete main)
Codec ID : 2000
Duration : 2h 16mn
Bit rate mode : Constant
Bit rate : 320 Kbps
Channel(s) : 6 channels
Channel positions : Front: L C R, Side: L R, LFE
Sampling rate : 48.0 KHz
Bit depth : 16 bits
Compression mode : Lossy
Delay relative to video : 1ms
Stream size : 313 MiB (22%)
Alignment : Split accross interleaves
Interleave, duration : 42 ms (1.00 video frame)
Interleave, preload duration : 500 ms


SCREENSHOTS: 
http://www.pohrani.com/f/P/Fl/anaMeqt/dune1984originaltheatric.jpg
